<?xml version="1.0" standalone="no"?><!DOCTYPE svg PUBLIC "-//W3C//DTD SVG 1.1//EN" "http://www.w3.org/Graphics/SVG/1.1/DTD/svg11.dtd"><svg t="1604035129318" class="icon" viewBox="0 0 1109 1024" version="1.1" xmlns="http://www.w3.org/2000/svg" p-id="10713" xmlns:xlink="http://www.w3.org/1999/xlink" width="17.328125" height="16"><defs><style type="text/css"></style></defs><path d="M933.546667 747.093333c-64.426667-28.842667-160.085333-103.168-301.653334-128.682666 36.181333-38.997333 63.573333-100.010667 91.818667-172.288 16.298667-41.813333 13.482667-77.653333 13.482667-128.426667 0-37.546667 7.082667-97.877333-2.218667-130.986667C703.744 74.752 624.896 43.861333 532.394667 43.861333c-92.586667 0-171.605333 31.061333-202.752 143.189334-9.216 33.024-2.133333 93.184-2.133334 130.56 0 51.029333-2.816 86.869333 13.653334 128.853333 28.330667 72.533333 55.381333 133.546667 91.477333 172.373333-140.544 26.026667-235.434667 99.754667-299.52 128.512C0.768 806.826667 0 871.936 0 871.936v110.592l1067.178667-0.085333v-110.506667s-0.597333-65.365333-133.632-124.842667z" fill="#A2B2D6" p-id="10714"></path></svg>